<svg xmlns="http://www.w3.org/2000/svg" width="1200" height="800" viewBox="0 0 1200 800">
  <defs>
    <linearGradient id="g1" x1="0" y1="0" x2="1" y2="1">
      <stop offset="0%" stop-color="#e8f0ff"/>
      <stop offset="100%" stop-color="#f6fbff"/>
    </linearGradient>
  </defs>
  <rect width="1200" height="800" fill="url(#g1)"/>
  <g transform="translate(180,120)">
    <rect x="0" y="0" width="840" height="560" rx="20" fill="#fff" stroke="#d7e3ff"/>
    <rect x="0" y="0" width="840" height="110" rx="20" fill="#e6f0ff"/>
    <circle cx="60" cy="55" r="10" fill="#4f80ff"/>
    <circle cx="95" cy="55" r="10" fill="#4f80ff"/>
    <rect x="140" y="40" width="200" height="30" rx="6" fill="#4f80ff" opacity="0.2"/>

    <!-- Grid -->
    <g transform="translate(40,160)" stroke="#eaeef7">
      <defs>
        <rect id="cell" width="110" height="80" rx="10" fill="#fff"/>
      </defs>
      <g fill="#fff">
        <use href="#cell" x="0" y="0"/>
        <use href="#cell" x="130" y="0"/>
        <use href="#cell" x="260" y="0"/>
        <use href="#cell" x="390" y="0"/>
        <use href="#cell" x="520" y="0"/>
        <use href="#cell" x="650" y="0"/>

        <use href="#cell" x="0" y="100"/>
        <use href="#cell" x="130" y="100"/>
        <use href="#cell" x="260" y="100"/>
        <use href="#cell" x="390" y="100"/>
        <use href="#cell" x="520" y="100"/>
        <use href="#cell" x="650" y="100"/>

        <use href="#cell" x="0" y="200"/>
        <use href="#cell" x="130" y="200"/>
        <use href="#cell" x="260" y="200"/>
        <use href="#cell" x="390" y="200"/>
        <use href="#cell" x="520" y="200"/>
        <use href="#cell" x="650" y="200"/>
      </g>
    </g>

    <!-- Events -->
    <rect x="70" y="230" width="220" height="16" rx="8" fill="#4f80ff" opacity="0.7"/>
    <rect x="210" y="330" width="180" height="16" rx="8" fill="#27ae60" opacity="0.6"/>
    <rect x="480" y="430" width="240" height="16" rx="8" fill="#f39c12" opacity="0.7"/>
    <rect x="620" y="230" width="140" height="16" rx="8" fill="#e74c3c" opacity="0.65"/>

    <!-- Check icon -->
    <g transform="translate(700,65)">
      <circle cx="0" cy="0" r="18" fill="#27ae60"/>
      <path d="M-8,0 l6,6 l12,-14" fill="none" stroke="#fff" stroke-width="3" stroke-linecap="round" stroke-linejoin="round"/>
    </g>
  </g>
</svg>