<svg xmlns="http://www.w3.org/2000/svg" width="1200" height="800" viewBox="0 0 1200 800">
  <defs>
    <linearGradient id="g2" x1="0" y1="0" x2="1" y2="1">
      <stop offset="0%" stop-color="#f0fff9"/>
      <stop offset="100%" stop-color="#f7fffb"/>
    </linearGradient>
  </defs>
  <rect width="1200" height="800" fill="url(#g2)"/>
  <g transform="translate(220,140)">
    <!-- Folder/record -->
    <rect x="0" y="60" width="760" height="460" rx="18" fill="#ffffff" stroke="#d8f0e6"/>
    <path d="M0,80 h160 a20,20 0 0 1 20,20 h560 v-20 a20,20 0 0 0 -20,-20 h-340 a24,24 0 0 1 -18,-8 l-18,-20 a24,24 0 0 0 -18,-8 h-116 a20,20 0 0 0 -14,6 l-16,16 a20,20 0 0 1 -14,6 h-162 z" fill="#e6fff4" opacity="0.9"/>

    <!-- Tooth/medical icon -->
    <g transform="translate(600,230)">
      <circle cx="0" cy="0" r="42" fill="#27ae60"/>
      <path d="M-8,-8 c6,-10 20,-10 26,0 c8,14 -4,30 -10,44 c-2,5 -8,5 -10,0 c-6,-14 -18,-30 -6,-44z" fill="#fff"/>
    </g>

    <!-- Lines representing text -->
    <rect x="60" y="180" width="380" height="16" rx="8" fill="#27ae60" opacity="0.15"/>
    <rect x="60" y="220" width="440" height="12" rx="6" fill="#27ae60" opacity="0.2"/>
    <rect x="60" y="250" width="400" height="12" rx="6" fill="#27ae60" opacity="0.2"/>
    <rect x="60" y="280" width="460" height="12" rx="6" fill="#27ae60" opacity="0.2"/>

    <!-- Odontogram squares -->
    <g transform="translate(60,340)">
      <rect x="0" y="0" width="70" height="50" rx="8" fill="#ffffff" stroke="#e0efe9"/>
      <rect x="90" y="0" width="70" height="50" rx="8" fill="#ffffff" stroke="#e0efe9"/>
      <rect x="180" y="0" width="70" height="50" rx="8" fill="#ffffff" stroke="#e0efe9"/>
      <rect x="270" y="0" width="70" height="50" rx="8" fill="#ffffff" stroke="#e0efe9"/>
      <rect x="360" y="0" width="70" height="50" rx="8" fill="#ffffff" stroke="#e0efe9"/>
    </g>
  </g>
</svg>